<?xml version="1.0" standalone="no"?>
<!DOCTYPE svg PUBLIC "-//W3C//DTD SVG 20010904//EN"
 "http://www.w3.org/TR/2001/REC-SVG-20010904/DTD/svg10.dtd">
<svg version="1.0" xmlns="http://www.w3.org/2000/svg"
 width="400.000000pt" height="410.000000pt" viewBox="0 0 400.000000 410.000000"
 preserveAspectRatio="xMidYMid meet">

<g transform="translate(0.000000,410.000000) scale(0.100000,-0.100000)"
fill="#000000" stroke="none">
<path d="M1799 3960 c-101 -12 -189 -42 -275 -96 -40 -24 -76 -44 -80 -44 -9
0 -74 -54 -74 -62 0 -2 -25 -30 -56 -62 -55 -57 -104 -142 -104 -182 0 -12 -4
-34 -10 -50 -5 -16 -14 -59 -19 -96 -10 -72 4 -161 49 -313 34 -114 40 -138
40 -179 0 -29 -3 -37 -14 -33 -21 8 -66 -38 -66 -68 0 -27 9 -32 27 -14 15 15
33 3 33 -22 0 -11 6 -19 13 -18 28 4 37 -2 37 -26 0 -30 -15 -32 -30 -4 -7 11
-14 19 -16 16 -8 -7 8 -67 17 -61 5 3 18 0 29 -6 19 -10 21 -19 18 -82 -3 -81
-18 -96 -43 -47 -13 25 -19 29 -26 18 -5 -8 -9 -23 -9 -34 0 -15 2 -17 9 -6
12 19 24 -3 16 -32 -5 -17 -4 -19 4 -7 9 13 11 13 11 -2 0 -26 17 -22 24 4 6
25 20 17 30 -18 5 -16 2 -23 -14 -27 -23 -6 -25 -24 -5 -51 13 -17 15 -17 41
8 21 18 30 22 36 13 11 -18 9 32 -6 155 -12 97 -11 198 2 198 3 0 11 -8 18
-17 12 -17 13 -16 14 5 0 23 14 30 25 11 5 -6 11 -4 19 7 12 15 14 14 19 -13
8 -42 84 -122 137 -145 48 -21 83 -16 157 20 52 26 48 39 -10 37 -75 -2 -167
42 -167 81 0 26 38 22 59 -7 14 -18 31 -29 46 -29 24 0 58 25 66 49 3 9 12 9
37 0 39 -13 40 -21 5 -49 l-28 -21 43 5 43 6 -16 -27 c-9 -16 -25 -43 -37 -61
-20 -32 -20 -33 -2 -30 11 2 23 8 27 13 5 6 7 3 4 -7 -3 -9 -3 -19 0 -22 8 -8
7 -109 -2 -135 -9 -29 6 -26 41 8 25 25 29 36 26 65 -3 23 -9 35 -17 34 -8 -2
-14 -1 -14 2 -2 12 24 70 31 70 4 0 8 6 8 14 0 7 11 25 25 40 16 18 25 39 25
60 0 19 7 39 15 46 18 15 20 37 3 43 -7 2 -10 8 -5 12 4 5 14 0 21 -11 8 -10
17 -16 21 -12 7 7 -13 31 -47 57 -14 10 -21 11 -31 2 -11 -8 -16 -5 -25 14 -6
14 -18 25 -25 25 -21 0 -128 35 -182 60 -26 12 -58 22 -73 23 -24 2 -46 27
-23 27 6 0 11 7 11 15 0 8 4 15 9 15 5 0 22 5 36 10 21 8 25 13 16 23 -6 8 -7
18 -2 23 14 15 24 87 12 79 -24 -14 -48 5 -49 40 -1 19 3 35 8 35 6 0 5 9 -2
20 -10 15 -10 25 -2 38 15 24 76 64 90 58 6 -2 17 1 24 7 9 9 8 5 -1 -16 -17
-38 -5 -44 31 -13 17 14 38 26 47 26 8 0 28 11 45 25 54 46 74 21 32 -40 -26
-37 -14 -37 26 -1 22 20 47 36 54 36 8 0 31 10 52 22 33 19 42 20 88 11 29 -6
65 -9 80 -6 22 5 33 1 47 -18 10 -13 19 -18 19 -11 0 21 30 13 30 -9 0 -11 9
-34 21 -50 13 -18 18 -36 14 -49 -4 -12 0 -26 10 -36 16 -16 14 -61 -4 -74 -9
-6 -8 -26 2 -36 16 -16 6 -25 -25 -22 -39 4 -49 -18 -14 -32 14 -5 26 -14 26
-20 0 -5 6 -9 13 -7 6 1 11 -5 9 -15 -1 -9 9 -25 22 -36 19 -14 22 -22 13 -31
-6 -6 -17 -11 -24 -11 -7 0 -13 -4 -13 -10 0 -5 -14 -10 -32 -10 -44 0 -238
-68 -265 -93 -28 -25 -30 -47 -3 -47 20 0 26 -11 13 -24 -16 -16 -12 -44 7
-49 13 -3 20 -14 20 -29 1 -12 7 -40 14 -60 9 -25 10 -38 3 -41 -7 -2 -3 -21
11 -50 12 -26 22 -54 22 -62 0 -8 14 -27 30 -42 20 -17 30 -36 30 -55 0 -32
-5 -33 -40 -14 -27 16 -52 8 -81 -26 -9 -10 -21 -18 -28 -18 -6 0 -11 -4 -11
-10 0 -13 17 -13 25 0 11 17 26 0 16 -17 -6 -11 -3 -26 10 -47 10 -17 19 -41
19 -53 0 -19 5 -23 33 -23 18 0 38 5 45 12 9 9 12 9 12 1 0 -7 12 -18 28 -25
16 -8 27 -21 27 -33 0 -24 -24 -24 -108 0 -51 14 -62 14 -80 2 -33 -21 -69
-27 -84 -15 -20 16 -73 12 -132 -11 -28 -11 -57 -18 -66 -15 -8 4 -22 1 -30
-6 -14 -12 -35 -6 -35 10 0 5 7 10 17 12 14 3 14 5 -2 18 -11 9 -16 10 -11 3
5 -9 -2 -13 -26 -13 -27 0 -38 -7 -57 -35 -27 -40 -40 -40 -59 -1 -11 21 -11
30 -2 41 7 8 10 22 6 30 -8 21 -36 19 -36 -2 0 -13 -4 -10 -14 9 -34 64 -75
104 -61 57 5 -13 3 -19 -3 -15 -9 5 -23 -40 -21 -73 0 -12 2 -11 9 4 7 19 8
19 15 1 5 -11 3 -21 -5 -26 -10 -6 -9 -17 8 -52 13 -29 23 -77 27 -138 4 -52
11 -105 16 -117 6 -17 5 -21 -5 -17 -30 11 -94 -105 -105 -187 l-6 -51 -60
-25 c-33 -14 -97 -42 -143 -64 -45 -21 -86 -39 -90 -39 -5 0 -31 -11 -58 -25
-27 -14 -55 -25 -62 -25 -7 0 -20 -4 -30 -9 -9 -5 -42 -19 -72 -31 -30 -12
-62 -28 -70 -34 -8 -7 -26 -17 -40 -23 -97 -42 -190 -89 -190 -95 0 -5 -7 -8
-16 -8 -33 0 -183 -81 -230 -124 -172 -160 -201 -203 -273 -414 -56 -165 -91
-350 -91 -484 l0 -118 1069 0 c1010 0 1070 1 1074 18 4 16 5 16 6 0 1 -17 52
-18 926 -18 l925 0 0 244 c0 135 -4 247 -9 250 -4 3 -11 27 -14 54 -13 109
-86 247 -170 318 -46 40 -128 109 -184 155 -26 21 -72 52 -102 69 -31 16 -78
44 -106 60 -67 41 -147 80 -163 80 -8 0 -26 8 -40 18 -42 29 -190 105 -267
137 -91 38 -151 70 -197 106 -20 16 -40 29 -45 29 -4 1 -28 43 -53 96 -25 52
-62 114 -82 136 -37 41 -37 43 -36 122 0 45 5 87 11 94 7 9 5 18 -7 31 -15 16
-15 19 -1 31 20 17 19 30 -2 31 -11 0 -13 3 -5 6 6 2 12 10 12 17 0 7 9 21 20
31 12 10 18 25 16 32 -7 18 14 28 26 12 6 -10 8 -3 7 21 -2 50 0 57 11 40 7
-11 10 -5 10 22 0 29 7 44 30 65 19 17 30 36 30 53 0 15 7 45 16 65 8 21 13
46 11 57 -3 11 0 18 9 18 8 0 15 11 15 28 1 15 3 38 5 52 1 14 0 32 -3 40 -8
24 -9 103 -1 128 5 15 14 22 25 20 14 -3 17 -12 15 -48 l-2 -45 14 50 c14 50
11 73 -17 108 -8 9 -22 17 -31 17 -21 0 -21 3 9 119 66 261 75 380 38 485 -7
22 -11 41 -9 44 7 6 -36 72 -78 116 -24 27 -34 46 -30 58 3 12 -1 20 -13 25
-10 3 -45 35 -78 69 -44 45 -74 67 -110 79 -27 10 -77 30 -110 46 -33 15 -87
33 -120 39 -33 7 -78 16 -100 20 -63 14 -263 20 -346 10z m615 -725 c3 -9 0
-15 -9 -15 -9 0 -12 6 -9 15 4 8 7 15 9 15 2 0 5 -7 9 -15z m224 -370 c1 -25
-2 -45 -7 -45 -10 0 -18 64 -13 94 6 31 19 0 20 -49z m-1028 -35 c0 -5 -5 -10
-11 -10 -5 0 -7 5 -4 10 3 6 8 10 11 10 2 0 4 -4 4 -10z m-338 -42 c24 -11 44
-45 34 -56 -2 -2 -20 13 -40 32 -38 38 -36 44 6 24z m458 2 c0 -5 -6 -10 -14
-10 -8 0 -18 5 -21 10 -3 6 3 10 14 10 12 0 21 -4 21 -10z m633 3 c-7 -2 -19
-2 -25 0 -7 3 -2 5 12 5 14 0 19 -2 13 -5z m-976 -45 c-3 -8 -6 -5 -6 6 -1 11
2 17 5 13 3 -3 4 -12 1 -19z m333 -8 c0 -5 -4 -10 -10 -10 -5 0 -10 5 -10 10
0 6 5 10 10 10 6 0 10 -4 10 -10z m170 -15 c0 -14 -4 -25 -9 -25 -5 0 -8 11
-8 25 0 14 3 25 8 25 5 0 9 -11 9 -25z m463 -45 c27 1 58 23 61 44 3 19 5 20
29 11 39 -15 6 -58 -59 -77 -41 -12 -49 -13 -99 -17 -27 -1 -28 -3 -13 -15 10
-7 15 -15 13 -18 -3 -3 2 -11 11 -19 11 -9 42 -14 88 -14 59 0 75 4 94 21 32
30 78 35 98 13 18 -20 31 -114 14 -104 -5 3 -10 0 -11 -7 -2 -61 -10 -102 -20
-108 -6 -4 -17 -30 -24 -56 -7 -27 -18 -48 -24 -47 -6 2 -10 -7 -8 -20 1 -13
-3 -21 -10 -19 -7 1 -13 -4 -13 -10 0 -9 -4 -8 -10 2 -7 10 -12 11 -17 4 -5
-6 -16 -13 -25 -17 -11 -4 -15 -13 -11 -27 4 -15 1 -21 -8 -20 -29 4 -37 -1
-32 -20 7 -28 -11 -25 -27 5 -7 13 -16 23 -19 20 -11 -6 -85 31 -104 52 -16
18 -16 23 -3 55 11 26 14 63 12 137 -2 56 0 104 5 107 5 3 9 -2 9 -10 0 -21
10 -20 26 2 8 10 13 12 14 5 0 -7 7 -13 15 -13 22 0 1 32 -52 83 -24 22 -43
46 -43 53 0 7 15 17 33 22 l32 8 -27 7 c-16 4 -28 13 -28 20 0 7 12 18 28 23
24 9 30 7 55 -23 17 -19 38 -33 50 -33z m7 60 c0 -5 -2 -10 -4 -10 -3 0 -8 5
-11 10 -3 6 -1 10 4 10 6 0 11 -4 11 -10z m289 -194 c-2 -96 -7 -172 -11 -170
-5 3 -8 -2 -8 -10 0 -9 -6 -16 -13 -16 -21 0 -28 12 -16 26 15 19 37 197 34
277 -2 40 1 67 7 67 6 0 9 -61 7 -174z m76 14 c-3 -5 -10 -10 -16 -10 -5 0 -9
5 -9 10 0 6 7 10 16 10 8 0 12 -4 9 -10z m-70 -230 c3 -5 1 -10 -4 -10 -6 0
-11 5 -11 10 0 6 2 10 4 10 3 0 8 -4 11 -10z m-39 -47 c-11 -11 -19 6 -11 24
8 17 8 17 12 0 3 -10 2 -21 -1 -24z m-438 15 c-6 -18 -28 -21 -28 -4 0 9 7 16
16 16 9 0 14 -5 12 -12z m362 -182 c0 -3 -4 -8 -10 -11 -5 -3 -10 -1 -10 4 0
6 5 11 10 11 6 0 10 -2 10 -4z m-838 -78 c-15 -15 -26 -4 -18 18 5 13 9 15 18
6 9 -9 9 -15 0 -24z m658 22 c0 -5 -4 -10 -9 -10 -6 0 -13 5 -16 10 -3 6 1 10
9 10 9 0 16 -4 16 -10z m-655 -70 c8 0 15 -4 15 -9 0 -6 -18 -9 -40 -9 -43 0
-51 13 -22 34 14 10 18 10 25 -2 4 -8 15 -14 22 -14z m388 6 c52 -9 56 -15 27
-41 -10 -9 -19 -20 -18 -24 3 -29 -4 -32 -66 -29 -40 1 -62 6 -60 13 3 6 -7
22 -21 35 -14 13 -25 29 -25 36 0 20 79 24 163 10z m187 -36 c0 -5 -5 -10 -11
-10 -5 0 -7 5 -4 10 3 6 8 10 11 10 2 0 4 -4 4 -10z m-543 -35 c-13 -26 -22
-31 -32 -16 -3 5 5 17 17 25 29 20 28 21 15 -9z m138 5 c3 -5 2 -10 -4 -10 -5
0 -13 5 -16 10 -3 6 -2 10 4 10 5 0 13 -4 16 -10z m-37 -44 c20 -12 60 -26 87
-30 28 -4 64 -10 82 -12 17 -3 68 2 113 10 45 9 86 14 90 11 5 -3 15 2 24 11
9 8 20 13 25 9 5 -3 12 -1 16 5 20 32 30 -31 11 -71 -4 -10 -6 -23 -5 -30 1
-8 -1 -22 -6 -32 -7 -17 -8 -17 -24 1 -23 26 -66 15 -67 -19 0 -33 -13 -52
-31 -45 -8 3 -12 2 -9 -3 3 -5 -2 -12 -11 -16 -10 -3 -19 -1 -21 4 -5 16 -28
13 -42 -4 -13 -15 -62 -19 -120 -9 -31 6 -55 51 -39 71 9 10 7 13 -6 13 -9 0
-19 -9 -22 -20 -3 -11 -10 -20 -15 -20 -5 0 -6 5 -2 12 5 8 2 9 -10 5 -18 -7
-69 20 -61 33 3 4 -2 11 -11 14 -10 4 -14 14 -11 26 3 11 1 23 -4 26 -6 3 -5
12 3 21 15 19 19 43 7 43 -5 0 -9 5 -9 10 0 17 29 11 68 -14z m485 -26 c-3
-12 -8 -19 -11 -16 -5 6 5 36 12 36 2 0 2 -9 -1 -20z m-3 -60 c0 -5 -4 -10
-10 -10 -5 0 -10 5 -10 10 0 6 5 10 10 10 6 0 10 -4 10 -10z m-610 -220 c0 -5
-4 -10 -10 -10 -5 0 -10 5 -10 10 0 6 5 10 10 10 6 0 10 -4 10 -10z m115 -119
c22 -24 39 -48 37 -53 -1 -5 6 -12 15 -15 10 -4 24 -13 31 -20 15 -14 32 -17
32 -5 0 4 48 6 106 4 75 -2 109 0 114 9 12 19 32 1 21 -19 -7 -13 -4 -20 15
-29 22 -10 24 -10 19 8 -4 13 -2 19 8 19 8 0 17 -9 20 -20 7 -27 23 -25 31 3
6 20 8 20 19 5 9 -11 22 -15 42 -11 25 3 27 2 13 -7 -18 -11 -25 -40 -10 -40
5 0 17 7 28 15 24 18 40 19 26 2 -11 -13 -5 -94 9 -102 8 -6 -15 -57 -40 -88
-46 -58 -196 -219 -207 -224 -8 -3 -29 -27 -49 -54 -19 -27 -38 -49 -42 -48
-5 0 -34 36 -66 80 -32 43 -75 91 -95 107 -45 33 -112 102 -112 114 0 11 -77
127 -113 173 -31 38 -45 105 -23 105 10 0 13 6 9 16 -4 10 1 17 16 21 12 3 21
13 21 24 0 24 29 37 41 18 6 -11 11 -11 20 -2 9 9 10 19 1 37 -12 26 -6 40 12
29 6 -4 29 -27 51 -52z m-141 13 c18 -7 12 -24 -10 -24 -8 0 -14 7 -14 15 0
17 2 18 24 9z m296 -1184 c0 -5 -4 -10 -10 -10 -5 0 -10 5 -10 10 0 6 5 10 10
10 6 0 10 -4 10 -10z m0 -40 c0 -5 -4 -10 -10 -10 -5 0 -10 5 -10 10 0 6 5 10
10 10 6 0 10 -4 10 -10z m0 -220 c0 -5 -4 -10 -10 -10 -5 0 -10 5 -10 10 0 6
5 10 10 10 6 0 10 -4 10 -10z"/>
<path d="M2177 1303 c-13 -12 -7 -33 8 -33 8 0 15 9 15 20 0 20 -11 26 -23 13z"/>
<path d="M1193 2675 c0 -22 2 -30 4 -17 2 12 2 30 0 40 -3 9 -5 -1 -4 -23z"/>
<path d="M1390 2671 c0 -12 5 -21 10 -21 6 0 10 6 10 14 0 8 -4 18 -10 21 -5
3 -10 -3 -10 -14z"/>
<path d="M1420 2610 c0 -5 5 -10 10 -10 6 0 10 5 10 10 0 6 -4 10 -10 10 -5 0
-10 -4 -10 -10z"/>
<path d="M1887 2335 c-12 -6 -28 -10 -35 -7 -19 6 -14 -22 8 -51 14 -18 16
-27 8 -29 -9 -3 -8 -12 6 -34 10 -16 13 -23 5 -16 -19 17 -43 15 -84 -9 -20
-12 -38 -19 -41 -16 -7 7 -54 -37 -54 -51 0 -17 19 -25 33 -14 7 5 27 13 45
17 18 4 38 15 45 26 6 10 20 19 30 19 37 0 96 39 103 68 10 49 13 52 39 52
l27 0 -29 24 c-35 29 -76 37 -106 21z m39 -40 c18 -15 18 -15 -5 -13 -14 2
-26 9 -29 16 -5 17 10 15 34 -3z"/>
<path d="M1390 2315 c-10 -12 -10 -15 2 -15 8 0 15 7 15 15 0 8 -1 15 -2 15
-2 0 -8 -7 -15 -15z"/>
<path d="M1348 2293 c7 -3 16 -2 19 1 4 3 -2 6 -13 5 -11 0 -14 -3 -6 -6z"/>
<path d="M1410 2266 c0 -17 14 -29 23 -20 8 8 -3 34 -14 34 -5 0 -9 -6 -9 -14z"/>
<path d="M1467 2229 c-7 -28 -6 -31 10 -14 6 6 8 18 3 24 -5 9 -9 5 -13 -10z"/>
<path d="M1452 2150 c0 -14 2 -19 5 -12 2 6 2 18 0 25 -3 6 -5 1 -5 -13z"/>
<path d="M2030 2148 c-22 -10 -23 -12 -6 -15 10 -3 26 2 34 11 19 18 8 20 -28
4z"/>
<path d="M1627 2093 c-12 -11 -8 -23 8 -23 8 0 15 7 15 15 0 16 -12 20 -23 8z"/>
<path d="M2571 2054 c0 -11 3 -14 6 -6 3 7 2 16 -1 19 -3 4 -6 -2 -5 -13z"/>
</g>
</svg>
