<?xml version="1.0" standalone="no"?>
<!DOCTYPE svg PUBLIC "-//W3C//DTD SVG 20010904//EN" "http://www.w3.org/TR/2001/REC-SVG-20010904/DTD/svg10.dtd">
<svg version="1.0" xmlns="http://www.w3.org/2000/svg"
    width="150pt" height="200pt" viewBox="0 0 400.000000 300.000000"
    preserveAspectRatio="xMidYMid meet">

    <g transform="translate(0.000000,300.000000) scale(0.100000,-0.100000)"
        fill="#00000" stroke="none">
        <path
            d="M0 2000 l0 -2000 2000 0 2000 0 0 2000 0 2000 -2000 0 -2000 0 0
-2000z m1172 438 c66 -39 122 -77 124 -83 3 -6 3 -63 2 -127 l-3 -115 -120 58
c-66 32 -127 58 -135 58 -8 0 -49 -20 -90 -43 l-75 -44 0 -103 0 -104 79 -42
c44 -24 85 -43 90 -42 6 0 65 26 131 58 l120 57 3 -115 c1 -63 1 -120 -2 -126
-4 -11 -238 -155 -252 -155 -4 0 -83 41 -175 90 -152 82 -170 96 -198 139 -18
27 -31 61 -31 79 l0 31 -147 3 c-124 3 -148 5 -148 18 0 13 24 15 148 18 l147
3 0 29 0 30 -250 0 c-243 0 -250 1 -250 20 0 19 8 20 247 22 l248 3 3 27 3 27
-148 3 c-124 3 -148 5 -148 18 0 13 24 15 148 18 l147 3 0 36 c0 39 47 131 77
149 10 6 52 29 93 51 41 23 109 59 150 82 41 22 79 41 83 41 5 0 63 -32 129
-72z m2205 -330 c-4 -62 -7 -141 -7 -175 0 -56 -2 -63 -20 -63 -14 0 -20 7
-20 21 l0 20 -26 -20 c-30 -23 -88 -28 -128 -10 -29 13 -56 64 -56 105 0 42
36 107 69 127 17 10 54 18 88 20 l58 2 3 43 c3 35 7 42 24 42 21 0 21 -3 15
-112z m-1419 -5 c9 -12 12 -33 8 -62 -3 -24 -6 -72 -6 -107 0 -61 -1 -64 -24
-64 -24 0 -24 1 -19 74 l5 74 -58 -20 c-91 -30 -113 -58 -74 -93 13 -12 30
-16 55 -13 24 3 35 0 35 -9 0 -9 -17 -13 -55 -13 -61 0 -95 22 -95 63 1 38 27
59 107 86 57 19 79 31 81 45 8 39 -61 59 -122 36 -21 -7 -26 -6 -26 5 0 38
159 37 188 -2z m-248 10 c0 -15 -8 -17 -48 -15 -40 3 -54 -1 -77 -21 -25 -21
-29 -31 -29 -82 -1 -74 24 -98 96 -93 40 2 48 0 48 -14 0 -15 -9 -18 -55 -18
-66 0 -106 18 -123 55 -16 35 -15 98 2 139 21 50 51 66 123 66 53 0 63 -3 63
-17z m360 -4 l0 -20 26 20 c38 30 119 29 151 -1 25 -24 29 -61 17 -177 -6 -51
-10 -61 -26 -61 -17 0 -19 8 -17 101 2 114 -5 129 -67 129 -65 0 -93 -53 -94
-172 0 -54 -2 -58 -23 -58 -23 0 -24 2 -20 78 7 154 13 182 34 182 13 0 19 -7
19 -21z m299 -71 c17 -51 35 -99 40 -106 8 -13 49 72 83 171 7 20 17 27 35 27
13 0 23 -4 21 -8 -1 -4 -28 -63 -58 -130 -49 -109 -58 -122 -80 -122 -23 0
-28 10 -68 123 -23 67 -42 125 -42 130 0 4 9 7 19 7 15 0 26 -19 50 -92z m388
77 c22 -16 47 -81 37 -97 -3 -4 -48 -8 -100 -8 l-94 0 0 -26 c0 -62 56 -100
125 -84 44 10 50 8 42 -15 -8 -19 -112 -21 -151 -3 -76 34 -84 164 -15 222 24
21 41 26 83 26 30 0 61 -6 73 -15z m123 -6 l0 -20 26 20 c37 29 126 29 154 1
16 -16 20 -33 20 -92 0 -110 -9 -148 -32 -148 -19 0 -20 4 -13 94 6 87 5 96
-14 115 -25 25 -61 27 -100 6 -33 -17 -51 -72 -51 -159 0 -49 -2 -56 -20 -56
-18 0 -20 7 -20 69 0 37 3 96 6 130 6 50 10 61 25 61 13 0 19 -7 19 -21z m756
3 c32 -25 44 -55 44 -109 0 -57 -28 -109 -66 -123 -39 -15 -117 -12 -142 6
-70 49 -69 182 2 225 41 25 132 26 162 1z m134 2 c0 -14 2 -14 22 0 29 21 78
21 78 1 0 -9 -9 -15 -23 -15 -57 0 -74 -34 -79 -160 -3 -60 -5 -65 -27 -68
-24 -4 -24 -3 -18 65 4 37 7 96 7 131 0 55 2 62 20 62 11 0 20 -7 20 -16z" />
        <path
            d="M3235 2096 c-55 -24 -81 -80 -64 -141 17 -60 86 -76 129 -30 20 21
25 39 28 97 3 52 1 73 -9 79 -19 12 -49 10 -84 -5z" />
        <path
            d="M2629 2080 c-17 -16 -28 -34 -24 -40 3 -5 37 -10 76 -10 67 0 69 1
69 24 0 29 -33 56 -68 56 -13 0 -37 -13 -53 -30z" />
        <path
            d="M3503 2085 c-33 -23 -48 -79 -34 -126 13 -44 35 -59 84 -59 48 0 79
36 85 99 4 43 1 53 -21 75 -30 30 -80 35 -114 11z" />
    </g>
</svg>